<svg width="59" height="64" viewBox="0 0 59 64" fill="none" xmlns="http://www.w3.org/2000/svg">
<path d="M39.3654 16.0007C38.4873 17.5163 37.9829 19.2751 37.9829 21.1517C37.9829 26.8428 42.5962 31.4561 48.2899 31.4561V21.1542L39.3654 16.0007ZM10.7101 32.5441C5.01904 32.5441 0.405731 37.1574 0.405731 42.8485C0.405731 48.5396 5.01904 53.1529 10.7101 53.1529C14.5247 53.1529 17.8528 51.0793 19.6347 47.9995L10.7101 42.8485V32.5441Z" fill="#E2A6FF"/>
<path d="M48.2898 10.8472C44.4753 10.8472 41.1472 12.9209 39.3653 16.0007L48.2898 21.1516V31.456C53.9809 31.456 58.5943 26.8427 58.5943 21.1516C58.5943 15.463 53.9809 10.8472 48.2898 10.8472ZM10.7101 32.544V42.8484L19.6346 47.9994C20.5127 46.4838 21.0171 44.725 21.0171 42.8484C21.0171 37.1573 16.4038 32.544 10.7101 32.544Z" fill="#FF3B19"/>
<path d="M37.9829 42.8484C37.9829 44.725 38.4873 46.4838 39.3654 47.9994L48.2899 42.8484V32.544C42.5988 32.544 37.9829 37.1573 37.9829 42.8484ZM10.7101 10.8472C5.01904 10.8472 0.405731 15.463 0.405731 21.1541C0.405731 26.8452 5.01904 31.4586 10.7101 31.4586V21.1541L19.6347 16.0007C17.8528 12.9209 14.5247 10.8472 10.7101 10.8472Z" fill="#3F57FF"/>
<path d="M48.2898 32.544V42.8484L39.3653 47.9993C41.1472 51.0791 44.4753 53.1528 48.2898 53.1528C53.9809 53.1528 58.5943 48.5395 58.5943 42.8484C58.5943 37.1573 53.9809 32.544 48.2898 32.544ZM10.7101 21.1541V31.4585C16.4012 31.4585 21.0171 26.8452 21.0171 21.1541C21.0171 19.2775 20.5127 17.5188 19.6346 16.0032L10.7101 21.1541Z" fill="#FFB31B"/>
<path d="M29.5012 43.3912C25.6867 43.3912 22.3585 45.4649 20.5767 48.5447L29.5012 53.6956L38.4257 48.5447C36.6413 45.4649 33.3132 43.3912 29.5012 43.3912ZM29.5012 0C23.8075 0 19.1942 4.6133 19.1942 10.3044C19.1942 12.181 19.6986 13.9398 20.5767 15.4553L29.5012 10.3044L38.4257 15.4553C39.3038 13.9398 39.8082 12.181 39.8082 10.3044C39.8056 4.6133 35.1923 0 29.5012 0Z" fill="#FFA5C5"/>
<path d="M38.4233 48.5446L29.4988 53.6955L20.5743 48.5446C19.6962 50.0602 19.1918 51.8189 19.1918 53.6955C19.1918 59.3866 23.8051 63.9999 29.4962 63.9999C35.1873 63.9999 39.8032 59.3866 39.8032 53.6955C39.8058 51.8189 39.3014 50.0602 38.4233 48.5446ZM29.5014 20.6113C33.3159 20.6113 36.644 18.5376 38.4259 15.4578L29.5014 10.3069L20.5768 15.4578C22.3587 18.5376 25.6868 20.6113 29.5014 20.6113Z" fill="#009482"/>
</svg>
