<svg xmlns="http://www.w3.org/2000/svg" viewBox="0 0 1440 930" width="1440" height="930" preserveAspectRatio="xMidYMid meet" style="width: 100%;height: 100%;transform: translate3d(0px, 0px, 0px);"><defs><clipPath id="__lottie_element_2"><rect width="1440" height="930" x="0" y="0"></rect></clipPath></defs><g clip-path="url(#__lottie_element_2)"><g transform="matrix(1,0,0,1,689.0759887695312,434.9010009765625)" opacity="0.05" style="display: block;"><g opacity="1" transform="matrix(1,0,0,1,31.923999786376953,30.099000930786133)"><path fill="rgb(41,217,255)" fill-opacity="1" d=" M699.5,-462.3739929199219 C710.5380249023438,-462.3739929199219 719.5,-453.4119873046875 719.5,-442.3739929199219 C719.5,-442.3739929199219 719.5,442.3739929199219 719.5,442.3739929199219 C719.5,453.4119873046875 710.5380249023438,462.3739929199219 699.5,462.3739929199219 C699.5,462.3739929199219 -699.5,462.3739929199219 -699.5,462.3739929199219 C-710.5380249023438,462.3739929199219 -719.5,453.4119873046875 -719.5,442.3739929199219 C-719.5,442.3739929199219 -719.5,-442.3739929199219 -719.5,-442.3739929199219 C-719.5,-453.4119873046875 -710.5380249023438,-462.3739929199219 -699.5,-462.3739929199219 C-699.5,-462.3739929199219 699.5,-462.3739929199219 699.5,-462.3739929199219z"></path></g></g><g transform="matrix(1,0,0,1,689.0759887695312,434.9010009765625)" opacity="0.05" style="display: block;"><g opacity="1" transform="matrix(1,0,0,1,31.923999786376953,30.099000930786133)"><path fill="rgb(41,217,255)" fill-opacity="1" d=" M672,-433.6409912109375 C683.0380249023438,-433.6409912109375 692,-424.6789855957031 692,-413.6409912109375 C692,-413.6409912109375 692,413.6409912109375 692,413.6409912109375 C692,424.6789855957031 683.0380249023438,433.6409912109375 672,433.6409912109375 C672,433.6409912109375 -672,433.6409912109375 -672,433.6409912109375 C-683.0380249023438,433.6409912109375 -692,424.6789855957031 -692,413.6409912109375 C-692,413.6409912109375 -692,-413.6409912109375 -692,-413.6409912109375 C-692,-424.6789855957031 -683.0380249023438,-433.6409912109375 -672,-433.6409912109375 C-672,-433.6409912109375 672,-433.6409912109375 672,-433.6409912109375z"></path></g></g><g transform="matrix(1,0,0,1,689.0759887695312,434.9010009765625)" opacity="0.05" style="display: block;"><g opacity="1" transform="matrix(1,0,0,1,31.923999786376953,30.099000930786133)"><path fill="rgb(41,217,255)" fill-opacity="1" d=" M642.5,-406.05999755859375 C653.5380249023438,-406.05999755859375 662.5,-397.0979919433594 662.5,-386.05999755859375 C662.5,-386.05999755859375 662.5,386.05999755859375 662.5,386.05999755859375 C662.5,397.0979919433594 653.5380249023438,406.05999755859375 642.5,406.05999755859375 C642.5,406.05999755859375 -642.5,406.05999755859375 -642.5,406.05999755859375 C-653.5380249023438,406.05999755859375 -662.5,397.0979919433594 -662.5,386.05999755859375 C-662.5,386.05999755859375 -662.5,-386.05999755859375 -662.5,-386.05999755859375 C-662.5,-397.0979919433594 -653.5380249023438,-406.05999755859375 -642.5,-406.05999755859375 C-642.5,-406.05999755859375 642.5,-406.05999755859375 642.5,-406.05999755859375z"></path></g></g><g transform="matrix(1,0,0,1,689.0759887695312,434.9010009765625)" opacity="0.08" style="display: block;"><g opacity="1" transform="matrix(1,0,0,1,31.923999786376953,30.099000930786133)"><path fill="rgb(41,217,255)" fill-opacity="1" d=" M614,-381.322998046875 C625.0380249023438,-381.322998046875 634,-372.3609924316406 634,-361.322998046875 C634,-361.322998046875 634,361.322998046875 634,361.322998046875 C634,372.3609924316406 625.0380249023438,381.322998046875 614,381.322998046875 C614,381.322998046875 -614,381.322998046875 -614,381.322998046875 C-625.0380249023438,381.322998046875 -634,372.3609924316406 -634,361.322998046875 C-634,361.322998046875 -634,-361.322998046875 -634,-361.322998046875 C-634,-372.3609924316406 -625.0380249023438,-381.322998046875 -614,-381.322998046875 C-614,-381.322998046875 614,-381.322998046875 614,-381.322998046875z"></path></g></g><g transform="matrix(1,0,0,1,718.0759887695312,434.9010009765625)" opacity="0.08" style="display: block;"><g opacity="1" transform="matrix(1,0,0,1,1.9240000247955322,30.099000930786133)"><path fill="rgb(41,217,255)" fill-opacity="1" d=" M583,-354.1180114746094 C594.0380249023438,-354.1180114746094 603,-345.156005859375 603,-334.1180114746094 C603,-334.1180114746094 603,334.1180114746094 603,334.1180114746094 C603,345.156005859375 594.0380249023438,354.1180114746094 583,354.1180114746094 C583,354.1180114746094 -583,354.1180114746094 -583,354.1180114746094 C-594.0380249023438,354.1180114746094 -603,345.156005859375 -603,334.1180114746094 C-603,334.1180114746094 -603,-334.1180114746094 -603,-334.1180114746094 C-603,-345.156005859375 -594.0380249023438,-354.1180114746094 -583,-354.1180114746094 C-583,-354.1180114746094 583,-354.1180114746094 583,-354.1180114746094z"></path></g></g></g></svg>